<svg xmlns="http://www.w3.org/2000/svg" xmlns:xlink="http://www.w3.org/1999/xlink" contentStyleType="text/css" data-diagram-type="SEQUENCE" height="877px" preserveAspectRatio="none" style="width:867px;height:877px;background:#FFFFFF;" version="1.1" viewBox="0 0 867 877" width="867px" zoomAndPan="magnify"><title>ABET Accreditation Process - SE DL Students (Sequence Diagram)</title><defs/><g><text fill="#000000" font-family="sans-serif" font-size="14" font-weight="bold" lengthAdjust="spacing" textLength="520.8848" x="174.3174" y="26.6553">ABET Accreditation Process - SE DL Students (Sequence Diagram)</text><rect fill="none" height="523.5469" style="stroke:#000000;stroke-width:1.5;" width="850.5195" x="10" y="176.4453"/><rect fill="none" height="178.0938" style="stroke:#000000;stroke-width:1.5;" width="830.5195" x="20" y="514.8984"/><g><title>Ed Tech</title><rect fill="#000000" fill-opacity="0.00000" height="753.1797" width="8" x="58.4048" y="117.7188"/><line style="stroke:#181818;stroke-width:0.5;stroke-dasharray:5.0,5.0;" x1="62" x2="62" y1="117.7188" y2="870.8984"/></g><g><title>Student</title><rect fill="#000000" fill-opacity="0.00000" height="753.1797" width="8" x="353.2505" y="117.7188"/><line style="stroke:#181818;stroke-width:0.5;stroke-dasharray:5.0,5.0;" x1="356.8457" x2="356.8457" y1="117.7188" y2="870.8984"/></g><g><title>Academic Associate</title><rect fill="#000000" fill-opacity="0.00000" height="753.1797" width="8" x="474.2676" y="117.7188"/><line style="stroke:#181818;stroke-width:0.5;stroke-dasharray:5.0,5.0;" x1="477.6553" x2="477.6553" y1="117.7188" y2="870.8984"/></g><g><title>Program Officer</title><rect fill="#000000" fill-opacity="0.00000" height="753.1797" width="8" x="628.8901" y="117.7188"/><line style="stroke:#181818;stroke-width:0.5;stroke-dasharray:5.0,5.0;" x1="632.8799" x2="632.8799" y1="117.7188" y2="870.8984"/></g><g><title>SE Share Drive</title><rect fill="#000000" fill-opacity="0.00000" height="753.1797" width="8" x="770.71" y="117.7188"/><line style="stroke:#181818;stroke-width:0.5;stroke-dasharray:5.0,5.0;" x1="773.9004" x2="773.9004" y1="117.7188" y2="870.8984"/></g><g class="participant participant-head" data-participant="ET"><text fill="#000000" font-family="sans-serif" font-size="14" lengthAdjust="spacing" textLength="58.8096" x="30" y="113.5146">Ed Tech</text><ellipse cx="62.4048" cy="50.3594" fill="#E2E2F0" rx="8" ry="8" style="stroke:#181818;stroke-width:0.5;"/><path d="M62.4048,58.3594 L62.4048,85.3594 M49.4048,66.3594 L75.4048,66.3594 M62.4048,85.3594 L49.4048,100.3594 M62.4048,85.3594 L75.4048,100.3594" fill="none" style="stroke:#181818;stroke-width:0.5;"/></g><g class="participant participant-head" data-participant="ST"><text fill="#000000" font-family="sans-serif" font-size="14" lengthAdjust="spacing" textLength="58.8096" x="324.8457" y="113.5146">Student</text><ellipse cx="357.2505" cy="50.3594" fill="#E2E2F0" rx="8" ry="8" style="stroke:#181818;stroke-width:0.5;"/><path d="M357.2505,58.3594 L357.2505,85.3594 M344.2505,66.3594 L370.2505,66.3594 M357.2505,85.3594 L344.2505,100.3594 M357.2505,85.3594 L370.2505,100.3594" fill="none" style="stroke:#181818;stroke-width:0.5;"/></g><g class="participant participant-head" data-participant="AA"><text fill="#000000" font-family="sans-serif" font-size="14" lengthAdjust="spacing" textLength="151.2246" x="399.6553" y="113.5146">Academic Associate</text><ellipse cx="478.2676" cy="50.3594" fill="#E2E2F0" rx="8" ry="8" style="stroke:#181818;stroke-width:0.5;"/><path d="M478.2676,58.3594 L478.2676,85.3594 M465.2676,66.3594 L491.2676,66.3594 M478.2676,85.3594 L465.2676,100.3594 M478.2676,85.3594 L491.2676,100.3594" fill="none" style="stroke:#181818;stroke-width:0.5;"/></g><g class="participant participant-head" data-participant="PO"><text fill="#000000" font-family="sans-serif" font-size="14" lengthAdjust="spacing" textLength="126.0205" x="566.8799" y="113.5146">Program Officer</text><ellipse cx="632.8901" cy="50.3594" fill="#E2E2F0" rx="8" ry="8" style="stroke:#181818;stroke-width:0.5;"/><path d="M632.8901,58.3594 L632.8901,85.3594 M619.8901,66.3594 L645.8901,66.3594 M632.8901,85.3594 L619.8901,100.3594 M632.8901,85.3594 L645.8901,100.3594" fill="none" style="stroke:#181818;stroke-width:0.5;"/></g><g class="participant participant-head" data-participant="Drive"><rect fill="#E2E2F0" height="29.8594" rx="2.5" ry="2.5" style="stroke:#181818;stroke-width:0.5;" width="131.6191" x="708.9004" y="86.8594"/><text fill="#000000" font-family="sans-serif" font-size="14" lengthAdjust="spacing" textLength="117.6191" x="715.9004" y="105.5146">SE Share Drive</text></g><g class="message" data-participant-1="ET" data-participant-2="ET"><line style="stroke:#181818;stroke-width:1;" x1="62.4048" x2="104.4048" y1="148.4453" y2="148.4453"/><line style="stroke:#181818;stroke-width:1;" x1="104.4048" x2="104.4048" y1="148.4453" y2="161.4453"/><line style="stroke:#181818;stroke-width:1;" x1="63.4048" x2="104.4048" y1="161.4453" y2="161.4453"/><polygon fill="#181818" points="73.4048,157.4453,63.4048,161.4453,73.4048,165.4453,69.4048,161.4453" style="stroke:#181818;stroke-width:1;"/><text fill="#000000" font-family="sans-serif" font-size="13" lengthAdjust="spacing" textLength="257.4419" x="69.4048" y="142.5415">Review student's undergrad degree</text></g><path d="M10,176.4453 L78.4038,176.4453 L78.4038,183.1719 L68.4038,193.1719 L10,193.1719 L10,176.4453" fill="#EEEEEE" style="stroke:#000000;stroke-width:1.5;"/><rect fill="none" height="523.5469" style="stroke:#000000;stroke-width:1.5;" width="850.5195" x="10" y="176.4453"/><text fill="#000000" font-family="sans-serif" font-size="13" font-weight="bold" lengthAdjust="spacing" textLength="23.4038" x="25" y="188.2681">alt</text><text fill="#000000" font-family="sans-serif" font-size="11" font-weight="bold" lengthAdjust="spacing" textLength="138.6226" x="93.4038" y="187.603">[ABET EAC Accredited]</text><g class="message" data-participant-1="ET" data-participant-2="ET"><line style="stroke:#181818;stroke-width:1;" x1="62.4048" x2="104.4048" y1="213.8984" y2="213.8984"/><line style="stroke:#181818;stroke-width:1;" x1="104.4048" x2="104.4048" y1="213.8984" y2="226.8984"/><line style="stroke:#181818;stroke-width:1;" x1="63.4048" x2="104.4048" y1="226.8984" y2="226.8984"/><polygon fill="#181818" points="73.4048,222.8984,63.4048,226.8984,73.4048,230.8984,69.4048,226.8984" style="stroke:#181818;stroke-width:1;"/><text fill="#000000" font-family="sans-serif" font-size="13" lengthAdjust="spacing" textLength="249.6406" x="69.4048" y="207.9946">Populate BSEng Verification Form</text></g><g class="message" data-participant-1="ET" data-participant-2="ST"><polygon fill="#181818" points="345.2505,251.625,355.2505,255.625,345.2505,259.625,349.2505,255.625" style="stroke:#181818;stroke-width:1;"/><line style="stroke:#181818;stroke-width:1;" x1="62.4048" x2="351.2505" y1="255.625" y2="255.625"/><text fill="#000000" font-family="sans-serif" font-size="13" lengthAdjust="spacing" textLength="210.6343" x="69.4048" y="249.7212">Send form + ABET screenshot</text></g><g class="message" data-participant-1="ST" data-participant-2="ET"><polygon fill="#181818" points="73.4048,280.3516,63.4048,284.3516,73.4048,288.3516,69.4048,284.3516" style="stroke:#181818;stroke-width:1;"/><line style="stroke:#181818;stroke-width:1;" x1="67.4048" x2="356.2505" y1="284.3516" y2="284.3516"/><text fill="#000000" font-family="sans-serif" font-size="13" lengthAdjust="spacing" textLength="171.6279" x="79.4048" y="278.4478">Return CAC signed form</text></g><g class="message" data-participant-1="ET" data-participant-2="AA"><polygon fill="#181818" points="466.2676,309.0781,476.2676,313.0781,466.2676,317.0781,470.2676,313.0781" style="stroke:#181818;stroke-width:1;"/><line style="stroke:#181818;stroke-width:1;" x1="62.4048" x2="472.2676" y1="313.0781" y2="313.0781"/><text fill="#000000" font-family="sans-serif" font-size="13" lengthAdjust="spacing" textLength="187.2305" x="69.4048" y="307.1743">Batch verification forms</text></g><g class="message" data-participant-1="AA" data-participant-2="PO"><polygon fill="#181818" points="620.8901,337.8047,630.8901,341.8047,620.8901,345.8047,624.8901,341.8047" style="stroke:#181818;stroke-width:1;"/><line style="stroke:#181818;stroke-width:1;" x1="478.2676" x2="626.8901" y1="341.8047" y2="341.8047"/><text fill="#000000" font-family="sans-serif" font-size="13" lengthAdjust="spacing" textLength="117.019" x="485.2676" y="335.9009">Review and sign</text></g><g class="message" data-participant-1="PO" data-participant-2="ET"><polygon fill="#181818" points="73.4048,366.5313,63.4048,370.5313,73.4048,374.5313,69.4048,370.5313" style="stroke:#181818;stroke-width:1;"/><line style="stroke:#181818;stroke-width:1;" x1="67.4048" x2="631.8901" y1="370.5313" y2="370.5313"/><text fill="#000000" font-family="sans-serif" font-size="13" lengthAdjust="spacing" textLength="187.2305" x="79.4048" y="364.6274">Return fully signed form</text></g><line style="stroke:#000000;stroke-width:1;stroke-dasharray:2.0,2.0;" x1="10" x2="860.5195" y1="379.5313" y2="379.5313"/><text fill="#000000" font-family="sans-serif" font-size="11" font-weight="bold" lengthAdjust="spacing" textLength="66.0107" x="15" y="388.689">[Non-ABET]</text><g class="message" data-participant-1="ET" data-participant-2="ST"><polygon fill="#181818" points="345.2505,409.7188,355.2505,413.7188,345.2505,417.7188,349.2505,413.7188" style="stroke:#181818;stroke-width:1;"/><line style="stroke:#181818;stroke-width:1;" x1="62.4048" x2="351.2505" y1="413.7188" y2="413.7188"/><text fill="#000000" font-family="sans-serif" font-size="13" lengthAdjust="spacing" textLength="202.833" x="69.4048" y="407.8149">Send Equivalency Checklist</text></g><g class="message" data-participant-1="ST" data-participant-2="ET"><polygon fill="#181818" points="73.4048,438.4453,63.4048,442.4453,73.4048,446.4453,69.4048,442.4453" style="stroke:#181818;stroke-width:1;"/><line style="stroke:#181818;stroke-width:1;" x1="67.4048" x2="356.2505" y1="442.4453" y2="442.4453"/><text fill="#000000" font-family="sans-serif" font-size="13" lengthAdjust="spacing" textLength="202.833" x="79.4048" y="436.5415">Return completed checklist</text></g><g class="message" data-participant-1="ET" data-participant-2="AA"><polygon fill="#181818" points="466.2676,467.1719,476.2676,471.1719,466.2676,475.1719,470.2676,471.1719" style="stroke:#181818;stroke-width:1;"/><line style="stroke:#181818;stroke-width:1;" x1="62.4048" x2="472.2676" y1="471.1719" y2="471.1719"/><text fill="#000000" font-family="sans-serif" font-size="13" lengthAdjust="spacing" textLength="163.8267" x="69.4048" y="465.2681">Batch checklist forms</text></g><g class="message" data-participant-1="AA" data-participant-2="ET"><polygon fill="#181818" points="73.4048,495.8984,63.4048,499.8984,73.4048,503.8984,69.4048,499.8984" style="stroke:#181818;stroke-width:1;"/><line style="stroke:#181818;stroke-width:1;" x1="67.4048" x2="477.2676" y1="499.8984" y2="499.8984"/><text fill="#000000" font-family="sans-serif" font-size="13" lengthAdjust="spacing" textLength="163.8267" x="79.4048" y="493.9946">Determine equivalency</text></g><path d="M20,514.8984 L88.4038,514.8984 L88.4038,521.625 L78.4038,531.625 L20,531.625 L20,514.8984" fill="#EEEEEE" style="stroke:#000000;stroke-width:1.5;"/><rect fill="none" height="178.0938" style="stroke:#000000;stroke-width:1.5;" width="830.5195" x="20" y="514.8984"/><text fill="#000000" font-family="sans-serif" font-size="13" font-weight="bold" lengthAdjust="spacing" textLength="23.4038" x="35" y="526.7212">alt</text><text fill="#000000" font-family="sans-serif" font-size="11" font-weight="bold" lengthAdjust="spacing" textLength="145.2236" x="103.4038" y="526.0562">[Equivalency Approved]</text><g class="message" data-participant-1="ET" data-participant-2="Drive"><polygon fill="#181818" points="762.71,548.3516,772.71,552.3516,762.71,556.3516,766.71,552.3516" style="stroke:#181818;stroke-width:1;"/><line style="stroke:#181818;stroke-width:1;" x1="62.4048" x2="768.71" y1="552.3516" y2="552.3516"/><text fill="#000000" font-family="sans-serif" font-size="13" lengthAdjust="spacing" textLength="195.0317" x="69.4048" y="546.4478">Store for final re-review</text></g><path d="M67,565.3516 L67,589.3516 L361,589.3516 L361,575.3516 L351,565.3516 L67,565.3516" fill="#FEFFDD" style="stroke:#181818;stroke-width:0.5;"/><path d="M351,565.3516 L351,575.3516 L361,575.3516 L351,565.3516" fill="#FEFFDD" style="stroke:#181818;stroke-width:0.5;"/><text fill="#000000" font-family="sans-serif" font-size="13" lengthAdjust="spacing" textLength="273.0444" x="73" y="581.1743">Final AA re-review in final quarter</text><line style="stroke:#000000;stroke-width:1;stroke-dasharray:2.0,2.0;" x1="20" x2="850.5195" y1="596.0781" y2="596.0781"/><text fill="#000000" font-family="sans-serif" font-size="11" font-weight="bold" lengthAdjust="spacing" textLength="92.415" x="25" y="605.2358">[Not Approved]</text><g class="message" data-participant-1="ET" data-participant-2="ET"><line style="stroke:#181818;stroke-width:1;" x1="62.4048" x2="104.4048" y1="630.2656" y2="630.2656"/><line style="stroke:#181818;stroke-width:1;" x1="104.4048" x2="104.4048" y1="630.2656" y2="643.2656"/><line style="stroke:#181818;stroke-width:1;" x1="63.4048" x2="104.4048" y1="643.2656" y2="643.2656"/><polygon fill="#181818" points="73.4048,639.2656,63.4048,643.2656,73.4048,647.2656,69.4048,643.2656" style="stroke:#181818;stroke-width:1;"/><text fill="#000000" font-family="sans-serif" font-size="13" lengthAdjust="spacing" textLength="210.6343" x="69.4048" y="624.3618">Assign MSES track in Python</text></g><g class="message" data-participant-1="ET" data-participant-2="ET"><line style="stroke:#181818;stroke-width:1;" x1="62.4048" x2="104.4048" y1="671.9922" y2="671.9922"/><line style="stroke:#181818;stroke-width:1;" x1="104.4048" x2="104.4048" y1="671.9922" y2="684.9922"/><line style="stroke:#181818;stroke-width:1;" x1="63.4048" x2="104.4048" y1="684.9922" y2="684.9922"/><polygon fill="#181818" points="73.4048,680.9922,63.4048,684.9922,73.4048,688.9922,69.4048,684.9922" style="stroke:#181818;stroke-width:1;"/><text fill="#000000" font-family="sans-serif" font-size="13" lengthAdjust="spacing" textLength="195.0317" x="69.4048" y="666.0884">Update ABET tracker notes</text></g><g class="message" data-participant-1="ET" data-participant-2="Drive"><polygon fill="#181818" points="762.71,723.7188,772.71,727.7188,762.71,731.7188,766.71,727.7188" style="stroke:#181818;stroke-width:1;"/><line style="stroke:#181818;stroke-width:1;" x1="62.4048" x2="768.71" y1="727.7188" y2="727.7188"/><text fill="#000000" font-family="sans-serif" font-size="13" lengthAdjust="spacing" textLength="187.2305" x="69.4048" y="721.8149">Upload signed form (PDF)</text></g><g class="message" data-participant-1="ET" data-participant-2="ET"><line style="stroke:#181818;stroke-width:1;" x1="62.4048" x2="104.4048" y1="756.4453" y2="756.4453"/><line style="stroke:#181818;stroke-width:1;" x1="104.4048" x2="104.4048" y1="756.4453" y2="769.4453"/><line style="stroke:#181818;stroke-width:1;" x1="63.4048" x2="104.4048" y1="769.4453" y2="769.4453"/><polygon fill="#181818" points="73.4048,765.4453,63.4048,769.4453,73.4048,773.4453,69.4048,769.4453" style="stroke:#181818;stroke-width:1;"/><text fill="#000000" font-family="sans-serif" font-size="13" lengthAdjust="spacing" textLength="202.833" x="69.4048" y="750.5415">Update ABET tracking sheet</text></g><g class="message" data-participant-1="ET" data-participant-2="ET"><line style="stroke:#181818;stroke-width:1;" x1="62.4048" x2="104.4048" y1="798.1719" y2="798.1719"/><line style="stroke:#181818;stroke-width:1;" x1="104.4048" x2="104.4048" y1="798.1719" y2="811.1719"/><line style="stroke:#181818;stroke-width:1;" x1="63.4048" x2="104.4048" y1="811.1719" y2="811.1719"/><polygon fill="#181818" points="73.4048,807.1719,63.4048,811.1719,73.4048,815.1719,69.4048,811.1719" style="stroke:#181818;stroke-width:1;"/><text fill="#000000" font-family="sans-serif" font-size="13" lengthAdjust="spacing" textLength="280.8457" x="69.4048" y="792.2681">Verify all grads have required forms</text></g><g class="message" data-participant-1="ET" data-participant-2="ET"><line style="stroke:#181818;stroke-width:1;" x1="62.4048" x2="104.4048" y1="839.8984" y2="839.8984"/><line style="stroke:#181818;stroke-width:1;" x1="104.4048" x2="104.4048" y1="839.8984" y2="852.8984"/><line style="stroke:#181818;stroke-width:1;" x1="63.4048" x2="104.4048" y1="852.8984" y2="852.8984"/><polygon fill="#181818" points="73.4048,848.8984,63.4048,852.8984,73.4048,856.8984,69.4048,852.8984" style="stroke:#181818;stroke-width:1;"/><text fill="#000000" font-family="sans-serif" font-size="13" lengthAdjust="spacing" textLength="202.833" x="69.4048" y="833.9946">Cross-check with grad list</text></g><!--SRC=[VLD1Rjim4Bph5OjScg3m1t8eGDlogQs5okcT9LSM4OgKbvHI_xvBof7bD8a00G8vEpixEuecMWInBWyWb2BK9ifel8EAlC8GO0Lr2TllKCT1eui1xciy3UWKmjR88ydkeMYDHcYyZt_ytwAGAdg2krB30LLx1p90UNWzlT3aqte-5Kfgx8m24O9NHaRC025U0QmcjO9zqnY5b6-hVT5BYaQPNhh8r2NKhIJMHMQS2F9NKV1mgsyiuX5-uMZm1SAauak0mMaafjQWyKY8XRHnigCKczaIr0NmS-MfV3zObWdhkdH7-8raMDZatCvJju3N3A_HQJQ8ElWwaGVcHHTQ7pEoNWYC0pdOSFDWZWwdiWMT48-mbb6rC2wR9bJ8C24IhDhFmqhkdRZoRRL_qwaPh3tVz48R47vwjqfAtnkaF0rcb9OpS8PDY-hPcl317CftlKNs3zGDyEqiy-r_WoIoBJDGPnm2NbjdJDhMKexeU_BZPLtNHZa7h9wpb89Aq1WdBH2kA7iqmvtddP8vjX5yatllCfArp60mxb9_6ZX_IBdwubhyI4BYudIpp_2ZBck89DLpeghEiVNk7VHJhrF2Sbuo6YdhczpXHHJfBMucVEgjbtgvJhYljhk7uXDQmm4EBM9S_YWvqMVsrqBwEmAqScHdalzqOGuB-8Py2AkyHNWniSr5aDVz3m00]--></g></svg>
