<svg xmlns="http://www.w3.org/2000/svg" xmlns:xlink="http://www.w3.org/1999/xlink" contentStyleType="text/css" data-diagram-type="DESCRIPTION" height="701px" preserveAspectRatio="none" style="width:903px;height:701px;background:#FFFFFF;" version="1.1" viewBox="0 0 903 701" width="903px" zoomAndPan="magnify"><defs/><g><!--cluster HEATHER 2--><g class="cluster" data-entity="HEATHER 2" data-source-line="18" data-uid="ent0006" id="cluster_HEATHER 2"><rect fill="none" height="598" rx="2.5" ry="2.5" style="stroke:#181818;stroke-width:1;" width="592" x="176" y="7"/><text fill="#000000" font-family="sans-serif" font-size="14" font-weight="bold" lengthAdjust="spacing" textLength="75.6123" x="434.1938" y="20.6553">HEATHER 2</text></g><!--entity ET1--><g class="entity" data-entity="ET1" data-source-line="20" data-uid="ent0007" id="entity_ET1"><ellipse cx="322.9466" cy="145.8893" fill="#F1F1F1" rx="77.4466" ry="17.8893" style="stroke:#181818;stroke-width:0.5;"/><text fill="#000000" font-family="sans-serif" font-size="14" lengthAdjust="spacing" textLength="126.0205" x="259.9363" y="150.319">ET1 Draft Email</text></g><!--entity ET2--><g class="entity" data-entity="ET2" data-source-line="21" data-uid="ent0008" id="entity_ET2"><ellipse cx="322.8326" cy="388.1665" fill="#F1F1F1" rx="111.3326" ry="24.6665" style="stroke:#181818;stroke-width:0.5;"/><text fill="#000000" font-family="sans-serif" font-size="14" lengthAdjust="spacing" textLength="201.6328" x="222.0162" y="392.5962">ET2 Develop Course Plans</text></g><!--entity ET3--><g class="entity" data-entity="ET3" data-source-line="22" data-uid="ent0009" id="entity_ET3"><ellipse cx="322.7523" cy="66.9505" fill="#F1F1F1" rx="115.2523" ry="25.4505" style="stroke:#181818;stroke-width:0.5;"/><text fill="#000000" font-family="sans-serif" font-size="14" lengthAdjust="spacing" textLength="210.0342" x="217.7352" y="71.3802">ET3 Develop Task Schedule</text></g><!--entity ET4--><g class="entity" data-entity="ET4" data-source-line="23" data-uid="ent0010" id="entity_ET4"><ellipse cx="323.1096" cy="476.1219" fill="#F1F1F1" rx="131.1096" ry="28.6219" style="stroke:#181818;stroke-width:0.5;"/><text fill="#000000" font-family="sans-serif" font-size="14" lengthAdjust="spacing" textLength="243.6396" x="201.2898" y="480.5516">ET4 Describe Academic Process</text></g><!--entity ET5--><g class="entity" data-entity="ET5" data-source-line="24" data-uid="ent0011" id="entity_ET5"><ellipse cx="322.9347" cy="303.8869" fill="#F1F1F1" rx="107.4347" ry="23.8869" style="stroke:#181818;stroke-width:0.5;"/><text fill="#000000" font-family="sans-serif" font-size="14" lengthAdjust="spacing" textLength="193.2314" x="226.3189" y="308.3166">ET5 Document Activities</text></g><!--entity ET6--><g class="entity" data-entity="ET6" data-source-line="25" data-uid="ent0012" id="entity_ET6"><ellipse cx="323.0611" cy="222.1122" fill="#F1F1F1" rx="103.5611" ry="23.1122" style="stroke:#181818;stroke-width:0.5;"/><text fill="#000000" font-family="sans-serif" font-size="14" lengthAdjust="spacing" textLength="184.8301" x="230.6461" y="226.5419">ET6 Define New Process</text></g><!--entity ET8--><g class="entity" data-entity="ET8" data-source-line="26" data-uid="ent0013" id="entity_ET8"><ellipse cx="322.8326" cy="564.1665" fill="#F1F1F1" rx="111.3326" ry="24.6665" style="stroke:#181818;stroke-width:0.5;"/><text fill="#000000" font-family="sans-serif" font-size="14" lengthAdjust="spacing" textLength="201.6328" x="222.0162" y="568.5962">ET8 Track Student Status</text></g><!--entity GE1--><g class="entity" data-entity="GE1" data-source-line="30" data-uid="ent0014" id="entity_GE1"><ellipse cx="632.7523" cy="184.9505" fill="#F1F1F1" rx="115.2523" ry="25.4505" style="stroke:#181818;stroke-width:0.5;"/><text fill="#000000" font-family="sans-serif" font-size="14" lengthAdjust="spacing" textLength="210.0342" x="527.7352" y="189.3802">GE1 Update Knowledge Base</text></g><!--entity GE2--><g class="entity" data-entity="GE2" data-source-line="31" data-uid="ent0015" id="entity_GE2"><ellipse cx="633.034" cy="386.1068" fill="#F1F1F1" rx="81.034" ry="18.6068" style="stroke:#181818;stroke-width:0.5;"/><text fill="#000000" font-family="sans-serif" font-size="14" lengthAdjust="spacing" textLength="134.4219" x="565.8231" y="390.5365">GE2 Test Queries</text></g><!--entity GE3--><g class="entity" data-entity="GE3" data-source-line="32" data-uid="ent0016" id="entity_GE3"><ellipse cx="632.9347" cy="83.8869" fill="#F1F1F1" rx="107.4347" ry="23.8869" style="stroke:#181818;stroke-width:0.5;"/><text fill="#000000" font-family="sans-serif" font-size="14" lengthAdjust="spacing" textLength="193.2314" x="536.3189" y="88.3166">GE3 Update Instructions</text></g><!--entity GE4--><g class="entity" data-entity="GE4" data-source-line="33" data-uid="ent0017" id="entity_GE4"><ellipse cx="633.034" cy="467.1068" fill="#F1F1F1" rx="81.034" ry="18.6068" style="stroke:#181818;stroke-width:0.5;"/><text fill="#000000" font-family="sans-serif" font-size="14" lengthAdjust="spacing" textLength="134.4219" x="565.8231" y="471.5365">GE4 Get Metadata</text></g><!--entity GE5--><g class="entity" data-entity="GE5" data-source-line="34" data-uid="ent0018" id="entity_GE5"><ellipse cx="633.1917" cy="304.2383" fill="#F1F1F1" rx="119.1917" ry="26.2383" style="stroke:#181818;stroke-width:0.5;"/><text fill="#000000" font-family="sans-serif" font-size="14" lengthAdjust="spacing" textLength="218.4355" x="523.974" y="308.668">GE5 Maintain Knowledge Log</text></g><!--entity ET--><g class="entity" data-entity="ET" data-source-line="13" data-uid="ent0002" id="entity_ET"><ellipse cx="68.9048" cy="247.5" fill="#F1F1F1" rx="8" ry="8" style="stroke:#181818;stroke-width:0.5;"/><path d="M68.9048,255.5 L68.9048,282.5 M55.9048,263.5 L81.9048,263.5 M68.9048,282.5 L55.9048,297.5 M68.9048,282.5 L81.9048,297.5" fill="none" style="stroke:#181818;stroke-width:0.5;"/><text fill="#000000" font-family="sans-serif" font-size="14" lengthAdjust="spacing" textLength="58.8096" x="39.5" y="310.6553">Ed Tech</text></g><!--entity GE--><g class="entity" data-entity="GE" data-source-line="14" data-uid="ent0003" id="entity_GE"><ellipse cx="854.0068" cy="274.5" fill="#F1F1F1" rx="8" ry="8" style="stroke:#181818;stroke-width:0.5;"/><path d="M854.0068,282.5 L854.0068,309.5 M841.0068,290.5 L867.0068,290.5 M854.0068,309.5 L841.0068,324.5 M854.0068,309.5 L867.0068,324.5" fill="none" style="stroke:#181818;stroke-width:0.5;"/><text fill="#000000" font-family="sans-serif" font-size="14" lengthAdjust="spacing" textLength="84.0137" x="812" y="337.6553">GPT Editor</text></g><!--entity ST--><g class="entity" data-entity="ST" data-source-line="15" data-uid="ent0004" id="entity_ST"><ellipse cx="632.9048" cy="629.5" fill="#F1F1F1" rx="8" ry="8" style="stroke:#181818;stroke-width:0.5;"/><path d="M632.9048,637.5 L632.9048,664.5 M619.9048,645.5 L645.9048,645.5 M632.9048,664.5 L619.9048,679.5 M632.9048,664.5 L645.9048,679.5" fill="none" style="stroke:#181818;stroke-width:0.5;"/><text fill="#000000" font-family="sans-serif" font-size="14" lengthAdjust="spacing" textLength="58.8096" x="603.5" y="692.6553">Student</text></g><!--entity AL--><g class="entity" data-entity="AL" data-source-line="16" data-uid="ent0005" id="entity_AL"><ellipse cx="69.0103" cy="358.5" fill="#F1F1F1" rx="8" ry="8" style="stroke:#181818;stroke-width:0.5;"/><path d="M69.0103,366.5 L69.0103,393.5 M56.0103,374.5 L82.0103,374.5 M69.0103,393.5 L56.0103,408.5 M69.0103,393.5 L82.0103,408.5" fill="none" style="stroke:#181818;stroke-width:0.5;"/><text fill="#000000" font-family="sans-serif" font-size="14" lengthAdjust="spacing" textLength="126.0205" x="6" y="421.6553">Academic Leader</text></g><!--link ET to ET1--><g class="link" data-entity-1="ET" data-entity-2="ET1" data-source-line="39" data-uid="lnk19" id="link_ET_ET1"><path d="M98.51,240.42 C116.35,219.97 141.03,195.71 168,181 C193.76,166.95 218.9782,159.6109 246.4982,154.5709" fill="none" id="ET-to-ET1" style="stroke:#181818;stroke-width:1;"/><polygon fill="#181818" points="252.4,153.49,242.8267,151.1767,247.4818,154.3907,244.2678,159.0459,252.4,153.49" style="stroke:#181818;stroke-width:1;"/></g><!--link ET to ET2--><g class="link" data-entity-1="ET" data-entity-2="ET2" data-source-line="40" data-uid="lnk20" id="link_ET_ET2"><path d="M98.87,300.89 C117.6,315.39 143.07,333.28 168,345 C191.11,355.86 211.7081,362.9036 236.0381,369.4836" fill="none" id="ET-to-ET2" style="stroke:#181818;stroke-width:1;"/><polygon fill="#181818" points="241.83,371.05,234.1864,364.8391,237.0034,369.7447,232.0978,372.5617,241.83,371.05" style="stroke:#181818;stroke-width:1;"/></g><!--link ET to ET3--><g class="link" data-entity-1="ET" data-entity-2="ET3" data-source-line="41" data-uid="lnk21" id="link_ET_ET3"><path d="M82.75,238.72 C97.41,200.56 125.12,143.02 168,110 C185.16,96.79 200.4081,89.381 221.3181,83.041" fill="none" id="ET-to-ET3" style="stroke:#181818;stroke-width:1;"/><polygon fill="#181818" points="227.06,81.3,217.2866,80.0835,222.2751,82.7508,219.6078,87.7394,227.06,81.3" style="stroke:#181818;stroke-width:1;"/></g><!--link ET to ET4--><g class="link" data-entity-1="ET" data-entity-2="ET4" data-source-line="42" data-uid="lnk22" id="link_ET_ET4"><path d="M98.79,297.5 C110.38,306.93 123.08,318.92 132,332 C158.15,370.33 134.19,398.22 168,430 C181.82,443 193.5472,450.2363 211.5672,456.9463" fill="none" id="ET-to-ET4" style="stroke:#181818;stroke-width:1;"/><polygon fill="#181818" points="217.19,459.04,210.1516,452.1508,212.5043,457.2952,207.3599,459.6479,217.19,459.04" style="stroke:#181818;stroke-width:1;"/></g><!--link ET to ET5--><g class="link" data-entity-1="ET" data-entity-2="ET5" data-source-line="43" data-uid="lnk23" id="link_ET_ET5"><path d="M98.91,280.1 C129.81,283.41 174.504,288.2017 219.744,293.0417" fill="none" id="ET-to-ET5" style="stroke:#181818;stroke-width:1;"/><polygon fill="#181818" points="225.71,293.68,217.1866,288.7453,220.7384,293.1481,216.3356,296.6999,225.71,293.68" style="stroke:#181818;stroke-width:1;"/></g><!--link ET to ET6--><g class="link" data-entity-1="ET" data-entity-2="ET6" data-source-line="44" data-uid="lnk24" id="link_ET_ET6"><path d="M98.91,270.69 C135.17,262.78 192.7979,250.1991 242.7979,239.2891" fill="none" id="ET-to-ET6" style="stroke:#181818;stroke-width:1;"/><polygon fill="#181818" points="248.66,238.01,239.0142,236.0206,243.7749,239.0759,240.7196,243.8367,248.66,238.01" style="stroke:#181818;stroke-width:1;"/></g><!--link ET to ET8--><g class="link" data-entity-1="ET" data-entity-2="ET8" data-source-line="45" data-uid="lnk25" id="link_ET_ET8"><path d="M98.59,295.83 C110.72,305.27 123.9,317.73 132,332 C174.42,406.75 109.67,458.87 168,522 C182.2,537.37 195.7044,545.4947 215.7444,551.8947" fill="none" id="ET-to-ET8" style="stroke:#181818;stroke-width:1;"/><polygon fill="#181818" points="221.46,553.72,214.1035,547.1716,216.697,552.1989,211.6697,554.7924,221.46,553.72" style="stroke:#181818;stroke-width:1;"/></g><!--link AL to ET1--><g class="link" data-entity-1="AL" data-entity-2="ET1" data-source-line="47" data-uid="lnk26" id="link_AL_ET1"><path d="M118.64,349.69 C123.68,344.18 128.3,338.24 132,332 C167.18,272.65 118.96,229.53 168,181 C188.37,160.85 211.839,152.227 239.499,147.997" fill="none" id="AL-to-ET1" style="stroke:#181818;stroke-width:1;"/><polygon fill="#181818" points="245.43,147.09,235.9287,144.4965,240.4875,147.8459,237.1381,152.4046,245.43,147.09" style="stroke:#181818;stroke-width:1;"/></g><!--link AL to ET2--><g class="link" data-entity-1="AL" data-entity-2="ET2" data-source-line="48" data-uid="lnk27" id="link_AL_ET2"><path d="M132.29,388 C156.2,388 178.25,388 205.34,388" fill="none" id="AL-to-ET2" style="stroke:#181818;stroke-width:1;"/><polygon fill="#181818" points="211.34,388,202.34,384,206.34,388,202.34,392,211.34,388" style="stroke:#181818;stroke-width:1;"/></g><!--link AL to ET4--><g class="link" data-entity-1="AL" data-entity-2="ET4" data-source-line="49" data-uid="lnk28" id="link_AL_ET4"><path d="M132.05,415.86 C143.89,420.81 156.25,425.74 168,430 C191.48,438.51 211.6178,444.9835 235.3478,452.0235" fill="none" id="AL-to-ET4" style="stroke:#181818;stroke-width:1;"/><polygon fill="#181818" points="241.1,453.73,233.6094,447.3354,236.3065,452.3079,231.334,455.005,241.1,453.73" style="stroke:#181818;stroke-width:1;"/></g><!--link AL to ET5--><g class="link" data-entity-1="AL" data-entity-2="ET5" data-source-line="50" data-uid="lnk29" id="link_AL_ET5"><path d="M132.23,359.8 C144,354.91 156.29,350.08 168,346 C194.17,336.87 217.59,330.0062 243.49,323.1462" fill="none" id="AL-to-ET5" style="stroke:#181818;stroke-width:1;"/><polygon fill="#181818" points="249.29,321.61,239.5659,320.0477,244.4567,322.8902,241.6141,327.781,249.29,321.61" style="stroke:#181818;stroke-width:1;"/></g><!--link AL to ET6--><g class="link" data-entity-1="AL" data-entity-2="ET6" data-source-line="51" data-uid="lnk30" id="link_AL_ET6"><path d="M116.29,349.7 C121.91,344.06 127.31,338.09 132,332 C153.33,304.27 140.69,283.86 168,262 C185.9,247.67 202.5844,239.9826 224.7944,234.0326" fill="none" id="AL-to-ET6" style="stroke:#181818;stroke-width:1;"/><polygon fill="#181818" points="230.59,232.48,220.8615,230.9452,225.7603,233.7739,222.9316,238.6727,230.59,232.48" style="stroke:#181818;stroke-width:1;"/></g><!--link AL to ET8--><g class="link" data-entity-1="AL" data-entity-2="ET8" data-source-line="52" data-uid="lnk31" id="link_AL_ET8"><path d="M88.68,426.21 C105.41,456.53 132.74,497.73 168,522 C186.72,534.88 203.4755,542.1904 225.4455,548.3904" fill="none" id="AL-to-ET8" style="stroke:#181818;stroke-width:1;"/><polygon fill="#181818" points="231.22,550.02,223.6447,543.726,226.4079,548.662,221.4719,551.4253,231.22,550.02" style="stroke:#181818;stroke-width:1;"/></g><!--reverse link ET2 to ST--><g class="link" data-entity-1="ET2" data-entity-2="ST" data-source-line="54" data-uid="lnk32" id="link_ET2_ST"><path d="M415.6607,405.4761 C431.8107,411.5961 441.82,418.03 454,430 C512.66,487.62 458.8,544.06 514,605 C537.74,631.22 576.75,645.59 603.36,652.78" fill="none" id="ET2-backto-ST" style="stroke:#181818;stroke-width:1;"/><polygon fill="#181818" points="410.05,403.35,417.0486,410.2797,414.7256,405.1218,419.8834,402.7988,410.05,403.35" style="stroke:#181818;stroke-width:1;"/></g><!--reverse link ET4 to ST--><g class="link" data-entity-1="ET4" data-entity-2="ST" data-source-line="55" data-uid="lnk33" id="link_ET4_ST"><path d="M414.4855,499.8768 C430.3555,506.1868 440.58,511.96 454,522 C490.44,549.27 478.81,576.13 514,605 C540.65,626.86 577.59,641.88 603.01,650.43" fill="none" id="ET4-backto-ST" style="stroke:#181818;stroke-width:1;"/><polygon fill="#181818" points="408.91,497.66,415.7953,504.7022,413.5562,499.5074,418.7511,497.2683,408.91,497.66" style="stroke:#181818;stroke-width:1;"/></g><!--reverse link ET8 to ST--><g class="link" data-entity-1="ET8" data-entity-2="ST" data-source-line="56" data-uid="lnk34" id="link_ET8_ST"><path d="M394.3035,585.6882 C460.4535,606.0882 554.55,635.11 603.25,650.13" fill="none" id="ET8-backto-ST" style="stroke:#181818;stroke-width:1;"/><polygon fill="#181818" points="388.57,583.92,395.9915,590.3946,393.348,585.3935,398.3491,582.7499,388.57,583.92" style="stroke:#181818;stroke-width:1;"/></g><!--reverse link GE1 to GE--><g class="link" data-entity-1="GE1" data-entity-2="GE" data-source-line="58" data-uid="lnk35" id="link_GE1_GE"><path d="M684.6098,211.2049 C712.5998,225.8049 743.87,242.34 776,260 C787.74,266.45 800.39,273.6 811.98,280.23" fill="none" id="GE1-backto-GE" style="stroke:#181818;stroke-width:1;"/><polygon fill="#181818" points="679.29,208.43,685.4198,216.1388,683.7232,210.7424,689.1196,209.0458,679.29,208.43" style="stroke:#181818;stroke-width:1;"/></g><!--reverse link GE2 to GE--><g class="link" data-entity-1="GE2" data-entity-2="GE" data-source-line="59" data-uid="lnk36" id="link_GE2_GE"><path d="M698.2212,371.8864 C724.2912,365.3764 749.27,357.95 776,347 C788.04,342.07 800.58,335.67 811.95,329.32" fill="none" id="GE2-backto-GE" style="stroke:#181818;stroke-width:1;"/><polygon fill="#181818" points="692.4,373.34,702.101,375.0404,697.251,372.1286,700.1628,367.2787,692.4,373.34" style="stroke:#181818;stroke-width:1;"/></g><!--reverse link GE3 to GE--><g class="link" data-entity-1="GE3" data-entity-2="GE" data-source-line="60" data-uid="lnk37" id="link_GE3_GE"><path d="M711.284,103.7559 C735.874,112.6259 756.46,123.52 776,142 C811.75,175.8 832.7,229.59 843.5,265.82" fill="none" id="GE3-backto-GE" style="stroke:#181818;stroke-width:1;"/><polygon fill="#181818" points="705.64,101.72,712.7488,108.5365,710.3434,103.4166,715.4633,101.0111,705.64,101.72" style="stroke:#181818;stroke-width:1;"/></g><!--reverse link GE4 to GE--><g class="link" data-entity-1="GE4" data-entity-2="GE" data-source-line="61" data-uid="lnk38" id="link_GE4_GE"><path d="M705.0196,454.7103 C730.8196,448.0503 753.76,438.9 776,422 C803.17,401.35 823.59,368.17 836.56,342.24" fill="none" id="GE4-backto-GE" style="stroke:#181818;stroke-width:1;"/><polygon fill="#181818" points="699.21,456.21,708.9241,457.8335,704.0513,454.9603,706.9246,450.0874,699.21,456.21" style="stroke:#181818;stroke-width:1;"/></g><!--reverse link GE5 to GE--><g class="link" data-entity-1="GE5" data-entity-2="GE" data-source-line="62" data-uid="lnk39" id="link_GE5_GE"><path d="M758.15,304 C779.57,304 794.54,304 811.76,304" fill="none" id="GE5-backto-GE" style="stroke:#181818;stroke-width:1;"/><polygon fill="#181818" points="752.15,304,761.15,308,757.15,304,761.15,300,752.15,304" style="stroke:#181818;stroke-width:1;"/></g><!--link ET1 to GE1--><!--link ET2 to GE2--><!--link ET3 to GE3--><!--link ET4 to GE4--><!--link ET5 to GE5--><!--SRC=[NPFVRzem4CVV_LUSUEbJD94V2BMeKZQYT1gTsCYUfZsupW4MmKQsqwwQ-h_ld2Pn2XBao_dZhyztbmRt3fm68mz71xKqA9pKYjs0FKbruOQVeP4AtUi5GHjtr8o5bHhtl6rSXNzTtiY3EgDo8EW73LjPzzhWFGEekUDFt2Byep_-yvcBKsbqg-elkj7c5ZR-zD8WghiUSMGPSUzvsnlUCLfwOwjFlI_Zmca3iwA62iLn1jn2KGtHSbj1KKlItK9P30ixrzRarqLt8vuBNkDP2jWWYVSz-OOnNmwk3Wt2xA78guVY9yGpkiSDKERjMS6SjHQ5lzoigEQmDfpgMPovRFg4FW0nhF4P6tsXxQsXsBRXolPaF2MJaQouFS5E7B5k6-pHP8gcX5fXv1F2U8sjqGBju9nEyGpMMhHTftBgzRDq4WSmcu8ByjrJw-4xlbmPBgRS4Yf33OM-ilJahXt89GkrYbdOLXPp-7MXoK3uflHBW_K1QIuizksQJz6OEcmT_6ZH3BbIS4eaWzbNPPrfknaUm6GAfb2YWqTqt4zbJwHJ8eD7BfMZxoIpZJxqRCOOU-lkfDJxks9PKK4KtNVD7cKSP19a6cGMv298gbU-6Tr66GUP1fa5kGYIBFoahQB83xYVZr4k1yby_Rsc5yFNTvH9a6cGsI2P7_Bezr7MrEe_T9plb3_jOynVFhcA9Lqg7sE-7DbLB6F_0G00]--></g></svg>